<?xml version="1.0" standalone="no"?>
<!DOCTYPE svg PUBLIC "-//W3C//DTD SVG 20010904//EN"
 "http://www.w3.org/TR/2001/REC-SVG-20010904/DTD/svg10.dtd">
<svg version="1.0" xmlns="http://www.w3.org/2000/svg"
 width="600.000000pt" height="600.000000pt" viewBox="0 0 600.000000 600.000000"
 preserveAspectRatio="xMidYMid meet">
<metadata>
Created by potrace 1.14, written by Peter Selinger 2001-2017
</metadata>
<g transform="translate(0.000000,600.000000) scale(0.100000,-0.100000)"
fill="#000000" stroke="none">
<path d="M4357 5163 c-115 -115 -236 -236 -270 -271 -33 -34 -61 -61 -63 -59
-1 1 4 31 12 67 28 128 29 158 3 186 -30 32 -78 32 -108 0 -16 -17 -43 -94
-89 -254 l-67 -230 -473 -473 -473 -473 -380 380 c-210 208 -408 413 -441 454
-187 230 -371 352 -633 419 -112 28 -363 36 -460 13 -27 -6 -61 -14 -75 -16
-46 -8 -174 -58 -250 -97 -41 -22 -123 -75 -181 -118 -92 -68 -115 -92 -172
-175 -165 -238 -226 -411 -232 -656 -3 -157 11 -254 56 -385 17 -49 40 -115
50 -145 11 -30 29 -75 41 -100 17 -33 322 -344 1120 -1140 1239 -1237 1425
-1418 1476 -1442 47 -22 107 -22 154 0 56 26 295 260 1749 1713 1339 1339
1348 1347 1344 1383 -2 20 -8 43 -14 50 -15 18 -59 26 -86 16 -11 -4 -84 -72
-163 -150 -110 -110 -145 -140 -155 -132 -10 9 29 54 180 206 167 169 193 199
193 226 0 41 -39 80 -80 80 -27 0 -57 -26 -222 -190 -105 -104 -194 -190 -199
-190 -33 0 4 45 173 214 250 249 268 270 263 297 -6 29 -33 69 -48 70 -6 1
-23 3 -37 4 -21 2 -65 -37 -255 -226 -181 -179 -234 -226 -243 -217 -10 10 30
55 183 208 205 207 214 219 179 268 -9 13 -25 27 -36 31 -17 6 4 31 151 179
155 156 171 175 171 206 0 25 -7 40 -26 55 -55 44 -75 33 -242 -135 -73 -74
-137 -134 -142 -134 -33 0 1 43 169 212 166 166 191 195 191 222 0 39 -8 51
-44 70 -20 10 -36 12 -55 5 -15 -5 -110 -92 -211 -194 -147 -147 -187 -182
-198 -173 -11 9 31 56 212 237 150 150 227 234 229 251 8 50 -30 90 -85 90
-15 0 -94 -72 -250 -227 -179 -179 -230 -225 -240 -215 -10 10 29 53 180 205
163 164 192 198 192 223 -1 44 -29 75 -73 78 -36 3 -43 -3 -301 -260 -145
-145 -267 -264 -271 -264 -4 0 -4 8 0 18 4 9 9 31 11 47 8 63 14 98 20 106 13
21 -9 69 -37 86 -17 10 -33 29 -36 44 -6 33 -54 62 -87 53 -15 -3 -108 -88
-217 -197 -160 -160 -193 -188 -201 -174 -7 14 32 58 217 244 223 224 227 228
221 263 -7 42 -38 70 -79 70 -26 0 -61 -30 -256 -225 -176 -174 -229 -222
-241 -215 -12 8 25 49 177 202 105 106 193 202 194 213 8 55 -28 95 -83 95
-15 0 -89 -67 -231 -207z m471 -327 c-7 -23 -50 -73 -127 -149 -94 -94 -118
-113 -128 -102 -10 11 13 39 120 148 73 74 135 135 139 136 3 0 1 -14 -4 -33z"/>
</g>
</svg>
